<svg width="18" height="18" viewBox="0 0 18 18" fill="none"
  xmlns="http://www.w3.org/2000/svg">
  <path d="M5.25 3.75H17.25V6.75H16.5V7.5H12C11.8011 7.5 11.6103 7.57902 11.4697 7.71967C11.329 7.86032 11.25 8.05109 11.25 8.25V9C11.25 9.39782 11.092 9.77936 10.8107 10.0607C10.5294 10.342 10.1478 10.5 9.75 10.5H7.215C6.93 10.5 6.6675 10.665 6.54 10.92L4.7025 14.5875C4.575 14.8425 4.32 15 4.035 15H1.5C1.5 15 -0.749998 15 2.25 10.5C2.25 10.5 4.5 7.5 1.5 7.5V3.75H2.25L2.625 3H4.875L5.25 3.75ZM10.5 9V8.25C10.5 8.05109 10.421 7.86032 10.2803 7.71967C10.1397 7.57902 9.94891 7.5 9.75 7.5H9C9 7.5 8.25 8.25 9 9C8.60218 9 8.22065 8.84196 7.93934 8.56066C7.65804 8.27936 7.5 7.89782 7.5 7.5C7.30109 7.5 7.11032 7.57902 6.96967 7.71967C6.82902 7.86032 6.75 8.05109 6.75 8.25V9C6.75 9.19891 6.82902 9.38968 6.96967 9.53033C7.11032 9.67098 7.30109 9.75 7.5 9.75H9.75C9.94891 9.75 10.1397 9.67098 10.2803 9.53033C10.421 9.38968 10.5 9.19891 10.5 9Z" fill="url(#paint0_linear_56_22)"/>
  <defs>
    <linearGradient id="paint0_linear_56_22" x1="0.91113" y1="8.72093" x2="17.2583" y2="8.85944" gradientUnits="userSpaceOnUse">
      <stop stop-color="#FF2B2B"/>
      <stop offset="1" stop-color="#E30909"/>
    </linearGradient>
  </defs>
</svg>
