<svg width="18" height="18" viewBox="0 0 18 18" fill="none"
  xmlns="http://www.w3.org/2000/svg">
  <g clip-path="url(#clip0)">
    <path fill-rule="evenodd" clip-rule="evenodd" d="M11.823 3C12.2408 3.00001 12.6503 3.11635 13.0057 3.33598C13.3611 3.5556 13.6484 3.86984 13.8353 4.2435L14.8748 6.32175C15.0577 6.24675 15.2378 6.16575 15.4147 6.07875C15.5928 5.98984 15.7988 5.97528 15.9876 6.0383C16.1763 6.10131 16.3323 6.23672 16.4213 6.41475C16.5102 6.59278 16.5247 6.79883 16.4617 6.98759C16.3987 7.17634 16.2633 7.33234 16.0853 7.42125C15.905 7.5015 15.7237 7.5795 15.5415 7.65525L16.2623 9.0975C16.4187 9.41021 16.5001 9.75509 16.5 10.1047V12C16.5005 12.3166 16.4339 12.6298 16.3046 12.9188C16.1753 13.2079 15.9863 13.4663 15.75 13.677V14.625C15.75 14.9234 15.6315 15.2095 15.4205 15.4205C15.2095 15.6315 14.9234 15.75 14.625 15.75C14.3266 15.75 14.0405 15.6315 13.8295 15.4205C13.6185 15.2095 13.5 14.9234 13.5 14.625V14.25H4.5V14.625C4.5 14.9234 4.38147 15.2095 4.1705 15.4205C3.95952 15.6315 3.67337 15.75 3.375 15.75C3.07663 15.75 2.79048 15.6315 2.5795 15.4205C2.36853 15.2095 2.25 14.9234 2.25 14.625V13.677C1.7895 13.2645 1.5 12.666 1.5 12V10.104C1.50014 9.75484 1.58154 9.41051 1.73775 9.09825L2.4525 7.66725C2.27175 7.59075 2.0925 7.50975 1.91625 7.422C1.73912 7.33193 1.60448 7.17587 1.54135 6.98745C1.47822 6.79903 1.49165 6.59335 1.57875 6.41475C1.62274 6.32657 1.68368 6.24793 1.75809 6.18331C1.83249 6.1187 1.9189 6.06938 2.01237 6.03817C2.10584 6.00697 2.20455 5.99449 2.30285 6.00145C2.40115 6.00842 2.49711 6.03468 2.58525 6.07875C2.76225 6.1665 2.943 6.24675 3.12525 6.32175L4.16475 4.24425C4.35154 3.87045 4.63873 3.55606 4.99414 3.3363C5.34955 3.11653 5.75913 3.00008 6.177 3H11.823Z" fill="url(#paint0_linear)"/>
  </g>
  <defs>
    <linearGradient id="paint0_linear" x1="1.7" y1="9.078" x2="16.5" y2="9.185" gradientUnits="userSpaceOnUse">
      <stop stop-color="#FF4C4C"/>
      <stop offset="1" stop-color="#E73030"/>
    </linearGradient>
    <clipPath id="clip0">
      <rect width="18" height="18" fill="white"/>
    </clipPath>
  </defs>
</svg>
